<svg width="53" height="13" viewBox="0 0 53 13" fill="none" xmlns="http://www.w3.org/2000/svg">
<path d="M1.918 12.226C1.65667 12.226 1.45133 12.198 1.302 12.142C1.15267 12.0953 1.036 12.0253 0.952 11.932C0.877333 11.848 0.830667 11.7453 0.812 11.624C0.793333 11.512 0.784 11.386 0.784 11.246V8.474C0.784 8.11933 0.872667 7.83 1.05 7.606C1.23667 7.37267 1.57267 7.256 2.058 7.256H10.206C10.4673 7.256 10.6727 7.284 10.822 7.34C10.9713 7.38667 11.0833 7.45667 11.158 7.55C11.242 7.634 11.2933 7.73667 11.312 7.858C11.3307 7.97 11.34 8.096 11.34 8.236V11.008C11.34 11.4747 11.2187 11.792 10.976 11.96C10.7333 12.1373 10.43 12.226 10.066 12.226H1.918ZM6.006 6.15C5.67933 5.90733 5.35267 5.63667 5.026 5.338C4.69933 5.03933 4.40067 4.71733 4.13 4.372C3.878 4.72667 3.59333 5.058 3.276 5.366C2.968 5.674 2.63667 5.93067 2.282 6.136C2.16067 6.21067 2.02533 6.27133 1.876 6.318C1.736 6.36467 1.59133 6.39267 1.442 6.402C1.28333 6.41133 1.12 6.38333 0.952 6.318C0.784 6.25267 0.644 6.12667 0.532 5.94C0.345333 5.64133 0.298667 5.37067 0.392 5.128C0.494667 4.876 0.695333 4.64267 0.994 4.428C1.34867 4.176 1.64267 3.952 1.876 3.756C2.10933 3.56 2.296 3.35933 2.436 3.154C2.576 2.94867 2.67867 2.72467 2.744 2.482C2.80933 2.23 2.84667 1.92667 2.856 1.572V1.348C2.856 1.11467 2.88867 0.918666 2.954 0.76C3.01933 0.601333 3.10333 0.475333 3.206 0.381999C3.318 0.288666 3.444 0.223333 3.584 0.186C3.724 0.148666 3.86867 0.129999 4.018 0.129999C4.16733 0.129999 4.312 0.148666 4.452 0.186C4.592 0.223333 4.71333 0.288666 4.816 0.381999C4.928 0.475333 5.01667 0.601333 5.082 0.76C5.14733 0.918666 5.18 1.11467 5.18 1.348V1.572C5.18933 1.92667 5.222 2.22533 5.278 2.468C5.34333 2.70133 5.446 2.916 5.586 3.112C5.726 3.29867 5.91267 3.48533 6.146 3.672C6.37933 3.85867 6.67333 4.078 7.028 4.33C7.32667 4.54467 7.52267 4.778 7.616 5.03C7.71867 5.27267 7.67667 5.54333 7.49 5.842C7.38733 6.00067 7.26133 6.122 7.112 6.206C6.972 6.28067 6.818 6.32267 6.65 6.332C6.54733 6.332 6.44 6.32267 6.328 6.304C6.216 6.276 6.10867 6.22467 6.006 6.15ZM8.792 1.278C8.792 0.811333 8.904 0.493999 9.128 0.325999C9.36133 0.148666 9.62733 0.0599995 9.926 0.0599995C10.0753 0.0599995 10.2153 0.0786662 10.346 0.116C10.486 0.153333 10.6073 0.218666 10.71 0.312C10.8127 0.405333 10.8967 0.531333 10.962 0.69C11.0273 0.848667 11.06 1.04467 11.06 1.278V2.272H12.082C12.3433 2.272 12.558 2.30467 12.726 2.37C12.894 2.426 13.0247 2.50067 13.118 2.594C13.2113 2.68733 13.272 2.79467 13.3 2.916C13.3373 3.028 13.356 3.14 13.356 3.252C13.356 3.392 13.3373 3.52267 13.3 3.644C13.272 3.76533 13.2113 3.87267 13.118 3.966C13.0247 4.05 12.894 4.12 12.726 4.176C12.558 4.232 12.3433 4.26 12.082 4.26H11.06V5.352C11.06 5.59467 11.0273 5.79533 10.962 5.954C10.8967 6.11267 10.8127 6.23867 10.71 6.332C10.6073 6.42533 10.486 6.49067 10.346 6.528C10.2153 6.56533 10.0753 6.584 9.926 6.584C9.77667 6.584 9.632 6.56533 9.492 6.528C9.36133 6.49067 9.24 6.42533 9.128 6.332C9.02533 6.23867 8.94133 6.11267 8.876 5.954C8.82 5.79533 8.792 5.59467 8.792 5.352V1.278ZM3.052 9.146V10.336H9.072V9.146H3.052ZM15.2207 12.226C14.9594 12.226 14.7541 12.198 14.6047 12.142C14.4554 12.0953 14.3387 12.0253 14.2547 11.932C14.1801 11.848 14.1334 11.7453 14.1147 11.624C14.0961 11.512 14.0867 11.386 14.0867 11.246V8.474C14.0867 8.11933 14.1754 7.83 14.3527 7.606C14.5394 7.37267 14.8754 7.256 15.3607 7.256H23.5087C23.7701 7.256 23.9754 7.284 24.1247 7.34C24.2741 7.38667 24.3861 7.45667 24.4607 7.55C24.5447 7.634 24.5961 7.73667 24.6147 7.858C24.6334 7.97 24.6427 8.096 24.6427 8.236V11.008C24.6427 11.4747 24.5214 11.792 24.2787 11.96C24.0361 12.1373 23.7327 12.226 23.3687 12.226H15.2207ZM19.3087 6.15C18.9821 5.90733 18.6554 5.63667 18.3287 5.338C18.0021 5.03933 17.7034 4.71733 17.4327 4.372C17.1807 4.72667 16.8961 5.058 16.5787 5.366C16.2707 5.674 15.9394 5.93067 15.5847 6.136C15.4634 6.21067 15.3281 6.27133 15.1787 6.318C15.0387 6.36467 14.8941 6.39267 14.7447 6.402C14.5861 6.41133 14.4227 6.38333 14.2547 6.318C14.0867 6.25267 13.9467 6.12667 13.8347 5.94C13.6481 5.64133 13.6014 5.37067 13.6947 5.128C13.7974 4.876 13.9981 4.64267 14.2967 4.428C14.6514 4.176 14.9454 3.952 15.1787 3.756C15.4121 3.56 15.5987 3.35933 15.7387 3.154C15.8787 2.94867 15.9814 2.72467 16.0467 2.482C16.1121 2.23 16.1494 1.92667 16.1587 1.572V1.348C16.1587 1.11467 16.1914 0.918666 16.2567 0.76C16.3221 0.601333 16.4061 0.475333 16.5087 0.381999C16.6207 0.288666 16.7467 0.223333 16.8867 0.186C17.0267 0.148666 17.1714 0.129999 17.3207 0.129999C17.4701 0.129999 17.6147 0.148666 17.7547 0.186C17.8947 0.223333 18.0161 0.288666 18.1187 0.381999C18.2307 0.475333 18.3194 0.601333 18.3847 0.76C18.4501 0.918666 18.4827 1.11467 18.4827 1.348V1.572C18.4921 1.92667 18.5247 2.22533 18.5807 2.468C18.6461 2.70133 18.7487 2.916 18.8887 3.112C19.0287 3.29867 19.2154 3.48533 19.4487 3.672C19.6821 3.85867 19.9761 4.078 20.3307 4.33C20.6294 4.54467 20.8254 4.778 20.9187 5.03C21.0214 5.27267 20.9794 5.54333 20.7927 5.842C20.6901 6.00067 20.5641 6.122 20.4147 6.206C20.2747 6.28067 20.1207 6.32267 19.9527 6.332C19.8501 6.332 19.7427 6.32267 19.6307 6.304C19.5187 6.276 19.4114 6.22467 19.3087 6.15ZM22.0947 1.278C22.0947 0.811333 22.2067 0.493999 22.4307 0.325999C22.6641 0.148666 22.9301 0.0599995 23.2287 0.0599995C23.3781 0.0599995 23.5181 0.0786662 23.6487 0.116C23.7887 0.153333 23.9101 0.218666 24.0127 0.312C24.1154 0.405333 24.1994 0.531333 24.2647 0.69C24.3301 0.848667 24.3627 1.04467 24.3627 1.278V2.272H25.3847C25.6461 2.272 25.8607 2.30467 26.0287 2.37C26.1967 2.426 26.3274 2.50067 26.4207 2.594C26.5141 2.68733 26.5747 2.79467 26.6027 2.916C26.6401 3.028 26.6587 3.14 26.6587 3.252C26.6587 3.392 26.6401 3.52267 26.6027 3.644C26.5747 3.76533 26.5141 3.87267 26.4207 3.966C26.3274 4.05 26.1967 4.12 26.0287 4.176C25.8607 4.232 25.6461 4.26 25.3847 4.26H24.3627V5.352C24.3627 5.59467 24.3301 5.79533 24.2647 5.954C24.1994 6.11267 24.1154 6.23867 24.0127 6.332C23.9101 6.42533 23.7887 6.49067 23.6487 6.528C23.5181 6.56533 23.3781 6.584 23.2287 6.584C23.0794 6.584 22.9347 6.56533 22.7947 6.528C22.6641 6.49067 22.5427 6.42533 22.4307 6.332C22.3281 6.23867 22.2441 6.11267 22.1787 5.954C22.1227 5.79533 22.0947 5.59467 22.0947 5.352V1.278ZM16.3547 9.146V10.336H22.3747V9.146H16.3547ZM27.9355 3.238C27.9355 2.86467 28.0055 2.496 28.1455 2.132C28.2855 1.768 28.4861 1.446 28.7475 1.166C29.0181 0.876666 29.3355 0.643333 29.6995 0.465999C30.0728 0.288666 30.4928 0.199999 30.9595 0.199999H35.5235C35.9808 0.199999 36.3961 0.288666 36.7695 0.465999C37.1428 0.643333 37.4601 0.876666 37.7215 1.166C37.9921 1.446 38.1975 1.768 38.3375 2.132C38.4775 2.496 38.5475 2.86467 38.5475 3.238V4.218C38.5475 4.60067 38.4868 4.96467 38.3655 5.31C38.2441 5.646 38.0575 5.94933 37.8055 6.22C37.5628 6.48133 37.2548 6.69133 36.8815 6.85C36.5175 7.00867 36.0881 7.088 35.5935 7.088H34.3895V9.972H38.1135C38.3748 9.972 38.5895 9.99533 38.7575 10.042C38.9255 10.098 39.0561 10.168 39.1495 10.252C39.2428 10.3453 39.3035 10.448 39.3315 10.56C39.3688 10.6813 39.3875 10.812 39.3875 10.952C39.3875 11.064 39.3688 11.176 39.3315 11.288C39.3035 11.4093 39.2428 11.512 39.1495 11.596C39.0561 11.6893 38.9255 11.764 38.7575 11.82C38.5895 11.876 38.3748 11.904 38.1135 11.904H28.3835C28.1221 11.904 27.9075 11.876 27.7395 11.82C27.5715 11.764 27.4408 11.6893 27.3475 11.596C27.2541 11.512 27.1888 11.4093 27.1515 11.288C27.1235 11.176 27.1095 11.064 27.1095 10.952C27.1095 10.812 27.1235 10.6813 27.1515 10.56C27.1888 10.448 27.2541 10.3453 27.3475 10.252C27.4408 10.168 27.5715 10.098 27.7395 10.042C27.9075 9.99533 28.1221 9.972 28.3835 9.972H32.1215V7.088H30.9035C30.4088 7.088 29.9748 7.00867 29.6015 6.85C29.2375 6.69133 28.9295 6.48133 28.6775 6.22C28.4348 5.94933 28.2481 5.646 28.1175 5.31C27.9961 4.96467 27.9355 4.60067 27.9355 4.218V3.238ZM30.2035 3.868C30.2035 4.21333 30.2968 4.50733 30.4835 4.75C30.6795 4.99267 30.9781 5.12333 31.3795 5.142H35.1035C35.5048 5.12333 35.7988 4.99267 35.9855 4.75C36.1815 4.50733 36.2795 4.21333 36.2795 3.868V3.42C36.2795 3.06533 36.1815 2.76667 35.9855 2.524C35.7988 2.272 35.4908 2.146 35.0615 2.146H31.4215C30.9921 2.146 30.6795 2.272 30.4835 2.524C30.2968 2.76667 30.2035 3.06533 30.2035 3.42V3.868ZM41.2382 3.238C41.2382 2.86467 41.3082 2.496 41.4482 2.132C41.5882 1.768 41.7889 1.446 42.0502 1.166C42.3209 0.876666 42.6382 0.643333 43.0022 0.465999C43.3755 0.288666 43.7955 0.199999 44.2622 0.199999H48.8262C49.2835 0.199999 49.6989 0.288666 50.0722 0.465999C50.4455 0.643333 50.7629 0.876666 51.0242 1.166C51.2949 1.446 51.5002 1.768 51.6402 2.132C51.7802 2.496 51.8502 2.86467 51.8502 3.238V4.218C51.8502 4.60067 51.7895 4.96467 51.6682 5.31C51.5469 5.646 51.3602 5.94933 51.1082 6.22C50.8655 6.48133 50.5575 6.69133 50.1842 6.85C49.8202 7.00867 49.3909 7.088 48.8962 7.088H47.6922V9.972H51.4162C51.6775 9.972 51.8922 9.99533 52.0602 10.042C52.2282 10.098 52.3589 10.168 52.4522 10.252C52.5455 10.3453 52.6062 10.448 52.6342 10.56C52.6715 10.6813 52.6902 10.812 52.6902 10.952C52.6902 11.064 52.6715 11.176 52.6342 11.288C52.6062 11.4093 52.5455 11.512 52.4522 11.596C52.3589 11.6893 52.2282 11.764 52.0602 11.82C51.8922 11.876 51.6775 11.904 51.4162 11.904H41.6862C41.4249 11.904 41.2102 11.876 41.0422 11.82C40.8742 11.764 40.7435 11.6893 40.6502 11.596C40.5569 11.512 40.4915 11.4093 40.4542 11.288C40.4262 11.176 40.4122 11.064 40.4122 10.952C40.4122 10.812 40.4262 10.6813 40.4542 10.56C40.4915 10.448 40.5569 10.3453 40.6502 10.252C40.7435 10.168 40.8742 10.098 41.0422 10.042C41.2102 9.99533 41.4249 9.972 41.6862 9.972H45.4242V7.088H44.2062C43.7115 7.088 43.2775 7.00867 42.9042 6.85C42.5402 6.69133 42.2322 6.48133 41.9802 6.22C41.7375 5.94933 41.5509 5.646 41.4202 5.31C41.2989 4.96467 41.2382 4.60067 41.2382 4.218V3.238ZM43.5062 3.868C43.5062 4.21333 43.5995 4.50733 43.7862 4.75C43.9822 4.99267 44.2809 5.12333 44.6822 5.142H48.4062C48.8075 5.12333 49.1015 4.99267 49.2882 4.75C49.4842 4.50733 49.5822 4.21333 49.5822 3.868V3.42C49.5822 3.06533 49.4842 2.76667 49.2882 2.524C49.1015 2.272 48.7935 2.146 48.3642 2.146H44.7242C44.2949 2.146 43.9822 2.272 43.7862 2.524C43.5995 2.76667 43.5062 3.06533 43.5062 3.42V3.868Z" fill="black"/>
</svg>
